<svg
  version="1.0"
  width="164"
  height="75"
  fill="none"
  xmlns="http://www.w3.org/2000/svg"
  viewBox="0 0 1674.000000 769.000000"
  preserveAspectRatio="xMidYMid meet"
>
<g transform="translate(0.000000,769.000000) scale(0.100000,-0.100000)"
fill="#000000" stroke="none">
<path d="M3628 7399 c-548 -27 -1106 -191 -1585 -467 -869 -498 -1488 -1344
-1703 -2324 -59 -268 -74 -429 -75 -768 0 -332 10 -440 65 -720 174 -878 682
-1661 1426 -2197 191 -137 518 -313 759 -406 305 -119 542 -178 915 -228 152
-21 653 -18 825 4 773 101 1443 410 2003 924 l92 85 -257 263 -258 263 -82
-78 c-746 -698 -1832 -934 -2818 -614 -581 189 -1107 584 -1457 1094 -256 373
-409 775 -474 1245 -25 177 -25 549 -1 725 86 616 326 1129 742 1584 413 452
1007 766 1640 867 175 27 535 37 712 19 628 -63 1221 -330 1662 -746 l71 -66
147 140 c82 77 199 192 262 255 l114 115 -64 59 c-139 129 -168 153 -264 228
-238 186 -567 376 -843 486 -493 198 -1016 285 -1554 258z"/>
<path d="M2200 5647 c0 -3 13 -31 29 -64 55 -111 95 -258 122 -453 9 -60 14
-489 18 -1480 l6 -1395 27 -55 c37 -75 100 -137 178 -174 l65 -31 314 -3 c172
-2 311 1 310 5 -2 4 -21 42 -41 85 -43 87 -70 176 -100 333 -21 109 -22 126
-25 1493 l-4 1382 318 0 c284 0 327 -2 402 -20 273 -66 414 -262 440 -614 23
-305 -39 -555 -169 -686 -108 -109 -225 -148 -470 -156 -178 -7 -210 -14 -245
-56 -26 -31 -83 -138 -130 -244 l-25 -56 338 5 c356 5 424 12 622 62 361 93
613 295 729 586 125 311 96 736 -67 1011 -131 222 -382 392 -691 468 -220 55
-184 53 -1098 57 -469 2 -853 2 -853 0z"/>
<path d="M6765 5316 c-230 -59 -385 -295 -385 -585 0 -244 102 -438 270 -519
229 -108 513 -43 606 140 13 26 24 59 24 73 0 25 -2 24 -67 -26 -37 -29 -88
-61 -113 -72 -55 -24 -192 -34 -243 -18 -88 29 -156 111 -194 231 -25 80 -25
348 0 446 45 175 141 258 270 233 28 -5 65 -20 83 -34 69 -52 102 -188 70
-290 -8 -27 -14 -50 -13 -51 1 -1 43 13 92 32 135 51 174 109 146 214 -25 95
-102 170 -216 211 -75 27 -254 35 -330 15z"/>
<path d="M13404 5306 c-17 -8 -40 -27 -51 -42 -26 -36 -63 -110 -63 -124 0 -6
30 -10 74 -10 64 0 78 3 103 24 28 24 74 99 88 144 6 21 4 22 -57 22 -35 -1
-77 -7 -94 -14z"/>
<path d="M9911 5228 c5 -18 12 -84 16 -145 l6 -113 -52 0 c-29 0 -61 -5 -72
-10 -18 -10 -49 -59 -49 -79 0 -6 36 -11 83 -13 l82 -3 6 -265 c3 -152 10
-279 17 -298 35 -104 101 -148 210 -140 70 5 133 30 166 67 19 21 19 21 -12
21 -74 0 -135 48 -157 124 -11 37 -15 105 -15 273 l0 223 61 0 c33 0 69 5 80
10 19 10 49 59 49 80 0 6 -35 10 -95 10 l-95 0 0 95 c0 161 -29 195 -164 195
l-75 0 10 -32z"/>
<path d="M12784 5242 c10 -30 25 -164 26 -219 l0 -53 -54 0 c-61 0 -98 -22
-114 -70 l-11 -29 87 -3 87 -3 5 -270 c6 -280 10 -307 53 -369 59 -84 233 -87
328 -6 l34 29 -38 1 c-41 0 -94 23 -115 49 -7 9 -23 36 -34 61 -20 42 -22 62
-22 275 l-1 230 55 3 c96 4 116 16 135 79 6 22 4 22 -92 25 l-98 3 -5 113 c-5
113 -5 114 -38 143 -30 27 -38 29 -113 29 -73 0 -80 -2 -75 -18z"/>
<path d="M7690 4979 c-200 -33 -312 -201 -297 -447 14 -247 168 -385 414 -369
142 8 246 74 303 191 72 147 60 355 -28 488 -45 70 -133 121 -233 138 -72 11
-83 11 -159 -1z m124 -83 c75 -31 111 -156 103 -361 -7 -198 -54 -295 -143
-295 -100 0 -146 107 -145 335 0 188 26 274 94 315 38 24 47 24 91 6z"/>
<path d="M8785 4981 c-16 -5 -42 -13 -56 -19 -29 -11 -162 -116 -198 -156 -40
-42 -51 -34 -51 37 -1 99 -34 127 -153 127 l-74 0 9 -42 c5 -24 12 -187 15
-363 3 -176 10 -328 15 -338 20 -38 69 -57 147 -57 63 0 72 2 67 16 -11 29
-26 238 -26 371 l0 131 53 47 c110 97 198 126 238 77 33 -41 39 -92 39 -325 0
-256 5 -277 65 -303 19 -8 64 -14 101 -14 l66 0 -7 28 c-4 15 -10 169 -14 342
-8 351 -14 382 -75 419 -36 23 -117 34 -161 22z"/>
<path d="M9357 4980 c-83 -21 -164 -84 -201 -157 -23 -45 -21 -135 4 -182 27
-54 69 -85 212 -161 153 -81 188 -110 188 -156 0 -28 -6 -38 -32 -54 -92 -56
-220 25 -243 153 -4 20 -12 37 -18 37 -20 0 -94 -50 -111 -74 -30 -47 -21 -85
32 -135 66 -64 131 -86 252 -85 109 1 162 19 228 79 52 46 72 90 72 156 0 100
-60 163 -235 243 -193 89 -246 157 -176 227 24 23 38 29 75 29 68 0 111 -42
128 -122 l12 -60 36 5 c54 7 107 33 125 61 15 23 15 27 -3 68 -42 95 -217 160
-345 128z"/>
<path d="M10879 4976 c-50 -18 -82 -43 -164 -125 -38 -39 -73 -71 -77 -71 -5
0 -8 20 -8 45 0 25 -6 61 -14 79 -22 54 -49 66 -143 66 l-82 0 11 -32 c6 -20
13 -167 15 -358 6 -360 7 -370 68 -396 19 -8 64 -14 101 -14 64 0 66 1 59 23
-4 12 -10 131 -12 263 l-5 241 58 48 c64 51 96 68 118 59 17 -7 36 -56 36 -95
0 -18 7 -32 19 -38 22 -12 46 3 132 86 l56 54 -8 56 c-13 93 -79 138 -160 109z"/>
<path d="M12259 4980 c-70 -12 -129 -42 -177 -90 -85 -85 -116 -183 -110 -339
5 -124 28 -194 88 -270 74 -93 236 -144 355 -112 95 25 175 106 175 175 0 26
-19 76 -29 76 -3 0 -15 -17 -26 -37 -42 -78 -152 -106 -242 -62 -88 43 -126
125 -126 274 0 127 25 203 82 258 33 30 48 37 82 37 53 0 92 -28 113 -80 20
-50 20 -100 2 -145 l-15 -34 67 24 c84 32 112 61 112 120 0 111 -74 182 -211
205 -71 11 -74 11 -140 0z"/>
<path d="M13922 4979 c-159 -27 -266 -147 -293 -331 -22 -152 24 -313 112
-393 126 -114 352 -127 496 -29 96 66 143 163 151 315 8 154 -32 273 -116 350
-53 50 -107 75 -192 88 -73 12 -84 12 -158 0z m135 -89 c41 -24 58 -51 76
-120 35 -128 28 -343 -15 -441 -39 -93 -121 -118 -183 -56 -44 44 -66 118 -72
252 -10 195 27 332 97 367 44 23 58 22 97 -2z"/>
<path d="M15008 4976 c-58 -16 -103 -45 -200 -130 -42 -36 -78 -66 -81 -66 -2
0 -7 30 -9 66 -4 60 -7 70 -36 95 -30 27 -38 29 -113 29 l-81 0 7 -27 c4 -16
9 -176 12 -358 4 -252 8 -335 18 -356 21 -39 72 -59 153 -59 l71 0 -11 33 c-6
17 -13 133 -15 258 l-5 225 58 54 c57 51 141 100 175 100 27 0 67 -38 80 -78
9 -26 12 -100 11 -259 -3 -237 2 -267 48 -308 17 -16 40 -21 106 -24 46 -1 84
-1 84 1 0 2 -5 19 -11 38 -6 20 -14 168 -18 350 -6 292 -7 318 -26 350 -38 64
-127 91 -217 66z"/>
<path d="M11102 4938 c5 -18 13 -168 17 -333 6 -204 12 -311 21 -335 27 -75
83 -110 173 -110 97 0 195 65 299 200 l27 35 1 -68 c0 -120 40 -157 166 -157
64 0 66 1 59 23 -5 12 -11 175 -14 362 -4 245 -10 346 -19 362 -24 42 -52 53
-139 53 l-82 0 11 -32 c5 -18 12 -125 15 -238 l5 -205 -67 -73 c-116 -125
-192 -153 -227 -82 -16 30 -18 67 -18 283 0 334 -6 347 -157 347 l-82 0 11
-32z"/>
<path d="M13282 4928 c5 -24 12 -187 15 -363 3 -176 10 -328 15 -338 20 -38
69 -57 147 -57 63 0 72 2 67 16 -14 36 -26 254 -26 479 0 212 -2 242 -18 261
-28 35 -56 44 -135 44 l-74 0 9 -42z"/>
<path d="M4477 3531 c-164 -38 -300 -71 -303 -74 -4 -4 831 -1344 897 -1438
l18 -26 310 71 c171 39 311 75 311 81 -1 20 -908 1450 -921 1452 -8 1 -148
-29 -312 -66z"/>
<path d="M13906 3568 c4 -13 10 -266 13 -563 6 -587 5 -569 64 -605 44 -27
183 -29 173 -4 -18 47 -26 244 -26 660 0 449 -1 462 -20 487 -25 32 -75 47
-154 47 -56 0 -58 -1 -50 -22z"/>
<path d="M12825 3538 c13 -39 19 -501 6 -494 -6 4 -11 13 -11 20 0 7 -18 34
-41 60 -73 83 -186 95 -295 31 -116 -68 -184 -242 -171 -435 12 -168 70 -285
162 -330 90 -44 229 -10 279 68 27 42 41 82 29 82 -4 -1 -19 -7 -33 -15 -14
-8 -48 -14 -77 -15 -106 0 -148 74 -148 265 0 106 3 126 24 168 58 117 177
136 261 41 l30 -35 0 -230 c0 -244 5 -274 50 -314 17 -16 40 -21 105 -23 l83
-4 -10 39 c-7 24 -13 226 -15 547 -5 563 -4 555 -68 582 -19 8 -64 14 -101 14
-64 0 -66 -1 -59 -22z"/>
<path d="M7383 3521 c-63 -23 -97 -48 -133 -99 -80 -109 -63 -228 51 -355 28
-32 50 -59 48 -60 -2 -1 -30 -15 -62 -32 -162 -83 -248 -254 -204 -406 22 -74
65 -122 144 -161 55 -27 79 -33 156 -36 149 -7 251 26 316 105 l30 37 64 -61
c73 -70 113 -85 212 -81 l64 3 -124 164 c-69 90 -125 167 -125 171 0 6 83 182
138 293 6 12 -123 8 -141 -5 -9 -7 -33 -48 -53 -92 -30 -66 -38 -76 -49 -65
-25 26 -125 154 -125 161 0 3 21 18 47 34 142 83 209 198 180 311 -18 70 -61
118 -136 156 -55 27 -77 32 -155 34 -71 3 -102 -1 -143 -16z m209 -80 c34 -38
52 -102 45 -163 -7 -58 -48 -139 -84 -168 l-28 -22 -28 34 c-79 94 -118 204
-95 273 28 86 132 111 190 46z m-63 -662 l110 -141 -15 -37 c-38 -91 -125
-156 -197 -147 -56 7 -111 47 -137 101 -47 98 -10 247 82 331 21 18 40 34 43
34 2 0 54 -64 114 -141z"/>
<path d="M8421 3485 c30 -68 38 -206 39 -641 0 -379 1 -392 20 -417 27 -34 76
-47 173 -47 42 0 77 1 77 3 0 1 -10 27 -22 57 -22 54 -23 65 -26 518 l-3 462
103 0 c126 0 191 -25 232 -87 61 -92 48 -241 -26 -310 -33 -31 -90 -53 -138
-53 -55 0 -76 -13 -100 -60 -26 -50 -26 -50 11 -50 83 0 136 -55 216 -220 67
-139 115 -213 159 -246 l33 -25 91 61 91 61 -51 46 c-28 25 -78 80 -112 122
-123 153 -181 199 -272 217 -48 9 -31 19 44 27 143 14 263 100 296 212 42 147
-22 297 -157 366 -79 40 -158 49 -436 49 l-262 0 20 -45z"/>
<path d="M14420 3519 c-40 -16 -60 -40 -96 -111 l-34 -68 79 0 c96 0 113 11
165 109 20 38 36 72 36 75 0 10 -123 6 -150 -5z"/>
<path d="M9690 3186 c-77 -17 -129 -47 -179 -101 -164 -178 -136 -524 52 -653
98 -68 252 -81 353 -29 58 30 88 59 109 109 18 44 18 58 5 94 l-10 26 -40 -45
c-51 -58 -109 -81 -185 -75 -34 3 -66 13 -83 25 -29 21 -92 99 -92 113 0 5 21
12 48 15 266 37 392 132 392 295 0 59 -38 138 -81 171 -72 54 -192 77 -289 55z
m149 -114 c34 -34 47 -102 31 -162 -16 -60 -80 -124 -166 -166 -103 -51 -108
-48 -101 74 7 126 28 192 76 242 34 36 43 40 85 40 39 0 53 -5 75 -28z"/>
<path d="M10667 3186 c-52 -19 -102 -53 -191 -131 -41 -36 -77 -65 -80 -65 -3
0 -6 20 -6 45 0 25 -6 61 -14 79 -22 54 -49 66 -143 66 l-82 0 11 -32 c6 -20
13 -167 15 -358 6 -360 7 -370 68 -396 19 -8 64 -14 101 -14 64 0 66 1 59 23
-4 12 -10 130 -12 263 l-5 241 68 58 c112 95 158 103 184 33 7 -21 14 -128 17
-288 3 -140 10 -263 15 -273 19 -38 69 -57 147 -57 66 0 72 2 66 18 -14 36
-25 183 -25 339 l0 161 65 60 c80 73 126 97 155 82 41 -22 45 -44 50 -320 5
-290 7 -297 66 -325 19 -9 60 -15 99 -15 l67 0 -7 28 c-4 15 -10 173 -14 352
-8 328 -12 362 -48 403 -9 9 -33 22 -54 27 -77 21 -153 -17 -303 -148 -33 -29
-62 -52 -66 -52 -4 0 -10 24 -13 54 -7 68 -31 120 -62 134 -42 19 -89 22 -128
8z"/>
<path d="M11760 3189 c-200 -33 -312 -201 -297 -447 14 -247 168 -385 414
-369 142 8 246 74 303 191 72 147 60 355 -28 488 -45 70 -133 121 -233 138
-72 11 -83 11 -159 -1z m124 -83 c75 -31 111 -156 103 -361 -7 -198 -54 -295
-143 -295 -100 0 -146 107 -145 335 0 188 26 274 94 315 38 24 47 24 91 6z"/>
<path d="M13440 3186 c-77 -17 -129 -47 -179 -101 -164 -178 -136 -524 52
-653 98 -68 252 -81 353 -29 58 30 88 59 109 109 18 44 18 58 5 94 l-10 26
-40 -45 c-51 -58 -109 -81 -185 -75 -34 3 -66 13 -83 25 -29 21 -92 99 -92
113 0 5 21 12 48 15 266 37 392 132 392 295 0 59 -38 138 -81 171 -72 54 -192
77 -289 55z m149 -114 c34 -34 47 -102 31 -162 -16 -60 -80 -124 -166 -166
-103 -51 -108 -48 -101 74 7 126 28 192 76 242 34 36 43 40 85 40 39 0 53 -5
75 -28z"/>
<path d="M15178 3186 c-58 -16 -103 -45 -200 -130 -42 -36 -78 -66 -81 -66 -2
0 -7 30 -9 66 -4 60 -7 70 -36 95 -30 27 -38 29 -113 29 l-81 0 7 -27 c4 -16
9 -176 12 -358 4 -252 8 -335 18 -356 21 -39 72 -59 153 -59 l71 0 -11 33 c-6
17 -13 133 -15 258 l-5 225 58 54 c57 51 141 100 175 100 27 0 67 -38 80 -78
9 -26 12 -100 11 -259 -3 -237 2 -267 48 -308 17 -16 40 -21 106 -24 46 -1 84
-1 84 1 0 2 -5 19 -11 38 -6 20 -14 168 -18 350 -6 292 -7 318 -26 350 -38 64
-127 91 -217 66z"/>
<path d="M15810 3186 c-155 -41 -250 -202 -250 -421 0 -200 72 -348 186 -385
54 -18 145 -7 198 24 46 27 66 51 84 105 11 30 10 32 -6 26 -48 -21 -109 -32
-137 -24 -73 21 -115 115 -115 259 0 150 46 246 131 271 50 16 116 -8 159 -58
l31 -35 -3 -371 c-3 -333 -5 -375 -21 -404 -34 -63 -88 -69 -181 -22 -33 17
-66 35 -73 41 -6 5 -27 8 -45 6 -28 -3 -38 -12 -75 -73 -24 -38 -43 -72 -43
-76 0 -12 75 -37 161 -55 242 -49 402 40 466 258 12 42 17 140 23 463 5 226
11 422 15 438 l7 27 -79 0 c-87 0 -113 -11 -138 -60 -8 -16 -15 -42 -15 -57 0
-27 -2 -26 -30 19 -35 56 -81 92 -135 107 -48 13 -58 13 -115 -3z"/>
<path d="M14286 3163 c4 -10 10 -174 13 -365 l6 -348 33 -32 c31 -31 37 -33
116 -36 l84 -4 -10 39 c-6 21 -13 186 -15 368 l-5 329 -33 33 c-32 32 -36 33
-115 33 -75 0 -81 -2 -74 -17z"/>
</g>
</svg>
